<svg width="363" height="444.00000000000006" xmlns="http://www.w3.org/2000/svg" xmlns:xlink="http://www.w3.org/1999/xlink">
 <!-- Created with Method Draw - http://github.com/duopixel/Method-Draw/ -->
 <g>
  <title>background</title>
  <rect x="-1" y="-1" width="365" height="446" id="canvas_background" fill="#fff"/>
 </g>
 <g>
  <title>Layer 1</title>
  <g clip-path="url(#_clipPath_uRC3u9RPTI3X0xnHf6GBRKEpiZG4LzEQ)" id="g9">
   <defs>
    <mask id="svg_2">
     <path d="m123,164.431l362.943,0l0,425.569l-362.943,0l0,-425.569z" id="svg_1" stroke-miterlimit="10" fill="white" stroke="black"/>
    </mask>
    <mask id="svg_4">
     <path d="m123,164.431l362.943,0l0,425.569l-362.943,0l0,-425.569z" id="svg_3" stroke-miterlimit="10" fill="white" stroke="black"/>
    </mask>
   </defs>
   <g id="svg_94">
    <g mask="url(#_mask_fZKMAU4Fw5puLC1lVNRzbBz3Ual27maL)" id="svg_7">
     <g mask="url(#_mask_pxlXO8T3oPqaHJkinscpjq44A2oziBgn)" id="svg_6"/>
    </g>


    <g id="svg_92"/>
   </g>
  </g>
  <path id="svg_93" d="m119.402257,51.01107l0,0l-3.17454,2.07035l-3.2899,2.07035l0.11537,0l0.52944,2.34639l0.41407,2.3464l0.11537,0l3.56595,0.41407l3.56596,0.41407l0,0l1.10418,-3.17454l0.98882,-3.17453l0.11537,0l-1.67893,-1.65628l-1.67893,-1.65628l-0.69223,-0.00001l0,0.00001z" fill-opacity="null" stroke-opacity="null" stroke-width="1.5" fill="#fff" stroke="#000"/>
  <path id="svg_5" d="m134.215087,51.01107l0,0l-3.17454,2.07035l-3.2899,2.07035l0.11537,0l0.52944,2.34639l0.41407,2.3464l0.11537,0l3.56595,0.41407l3.56596,0.41407l0,0l1.10418,-3.17454l0.98882,-3.17453l0.11537,0l-1.67893,-1.65628l-1.67893,-1.65628l-0.69223,-0.00001l0,0.00001z" fill-opacity="null" stroke-opacity="null" stroke-width="1.5" fill="#fff" stroke="#000"/>
  <path id="svg_95" d="m59.281593,44.06245l0,0l-3.17454,2.07035l-3.2899,2.07035l0.11537,0l0.52944,2.34639l0.41407,2.3464l0.11537,0l3.56595,0.41407l3.56596,0.41407l0,0l1.10418,-3.17454l0.98882,-3.17453l0.11537,0l-1.67893,-1.65628l-1.67893,-1.65628l-0.69223,-0.00001l0,0.00001z" fill-opacity="null" stroke-opacity="null" stroke-width="1.5" fill="#fff" stroke="#000"/>
  <path id="svg_96" d="m74.094423,44.06245l0,0l-3.17454,2.07035l-3.2899,2.07035l0.11537,0l0.52944,2.34639l0.41407,2.3464l0.11537,0l3.56595,0.41407l3.56596,0.41407l0,0l1.10418,-3.17454l0.98882,-3.17453l0.11537,0l-1.67893,-1.65628l-1.67893,-1.65628l-0.69223,-0.00001l0,0.00001z" fill-opacity="null" stroke-opacity="null" stroke-width="1.5" fill="#fff" stroke="#000"/>
  <path id="svg_97" d="m245.383763,38.926514l0,0l-3.17454,2.07035l-3.2899,2.07035l0.11537,0l0.52944,2.34639l0.41407,2.3464l0.11537,0l3.56595,0.41407l3.56596,0.41407l0,0l1.10418,-3.17454l0.98882,-3.17453l0.11537,0l-1.67893,-1.65628l-1.67893,-1.65628l-0.69223,-0.00001l0,0.00001z" fill-opacity="null" stroke-opacity="null" stroke-width="1.5" fill="#fff" stroke="#000"/>
  <path id="svg_98" d="m260.196593,38.926514l0,0l-3.17454,2.07035l-3.2899,2.07035l0.11537,0l0.52944,2.34639l0.41407,2.3464l0.11537,0l3.56595,0.41407l3.56596,0.41407l0,0l1.10418,-3.17454l0.98882,-3.17453l0.11537,0l-1.67893,-1.65628l-1.67893,-1.65628l-0.69223,-0.00001l0,0.00001z" fill-opacity="null" stroke-opacity="null" stroke-width="1.5" fill="#fff" stroke="#000"/>
  <path id="svg_99" d="m202.18147,104.485226l0,0l-3.17454,2.07035l-3.2899,2.07035l0.11537,0l0.52944,2.34639l0.41407,2.3464l0.11537,0l3.56595,0.41407l3.56596,0.41407l0,0l1.10418,-3.17454l0.98882,-3.17453l0.11537,0l-1.67893,-1.65628l-1.67893,-1.65628l-0.69223,-0.00001l0,0.00001z" fill-opacity="null" stroke-opacity="null" stroke-width="1.5" fill="#fff" stroke="#000"/>
  <path id="svg_100" d="m216.9943,104.485226l0,0l-3.17454,2.07035l-3.2899,2.07035l0.11537,0l0.52944,2.34639l0.41407,2.3464l0.11537,0l3.56595,0.41407l3.56596,0.41407l0,0l1.10418,-3.17454l0.98882,-3.17453l0.11537,0l-1.67893,-1.65628l-1.67893,-1.65628l-0.69223,-0.00001l0,0.00001z" fill-opacity="null" stroke-opacity="null" stroke-width="1.5" fill="#fff" stroke="#000"/>
  <path id="svg_101" d="m265.030412,117.476128l0,0l-3.17454,2.07035l-3.2899,2.07035l0.11537,0l0.52944,2.34639l0.41407,2.3464l0.11537,0l3.56595,0.41407l3.56596,0.41407l0,0l1.10418,-3.17454l0.98882,-3.17453l0.11537,0l-1.67893,-1.65628l-1.67893,-1.65628l-0.69223,-0.00001l0,0.00001z" fill-opacity="null" stroke-opacity="null" stroke-width="1.5" fill="#fff" stroke="#000"/>
  <path id="svg_102" d="m265.030416,131.79072l0,0l-3.17454,2.07035l-3.2899,2.07035l0.11537,0l0.52944,2.34639l0.41407,2.3464l0.11537,0l3.56595,0.41407l3.56596,0.41407l0,0l1.10418,-3.17454l0.98882,-3.17453l0.11537,0l-1.67893,-1.65628l-1.67893,-1.65628l-0.69223,-0.00001l0,0.00001z" fill-opacity="null" stroke-opacity="null" stroke-width="1.5" fill="#fff" stroke="#000"/>
  <path id="svg_103" d="m265.33253,145.439449l0,0l-3.17454,2.07035l-3.2899,2.07035l0.11537,0l0.52944,2.34639l0.41407,2.3464l0.11537,0l3.56595,0.41407l3.56596,0.41407l0,0l1.10418,-3.17454l0.98882,-3.17453l0.11537,0l-1.67893,-1.65628l-1.67893,-1.65628l-0.69223,-0.00001l0,0.00001z" fill-opacity="null" stroke-opacity="null" stroke-width="1.5" fill="#fff" stroke="#000"/>
  <path id="svg_104" d="m139.351028,143.760041l0,0l-3.17454,2.07035l-3.2899,2.07035l0.11537,0l0.52944,2.34639l0.41407,2.3464l0.11537,0l3.56595,0.41407l3.56596,0.41407l0,0l1.10418,-3.17454l0.98882,-3.17453l0.11537,0l-1.67893,-1.65628l-1.67893,-1.65628l-0.69223,-0.00001l0,0.00001z" fill-opacity="null" stroke-opacity="null" stroke-width="1.5" fill="#fff" stroke="#000"/>
  <path id="svg_105" d="m139.351038,158.074631l0,0l-3.17454,2.07035l-3.2899,2.07035l0.11537,0l0.52944,2.34639l0.41407,2.3464l0.11537,0l3.56595,0.41407l3.56596,0.41407l0,0l1.10418,-3.17454l0.98882,-3.17453l0.11537,0l-1.67893,-1.65628l-1.67893,-1.65628l-0.69223,-0.00001l0,0.00001z" fill-opacity="null" stroke-opacity="null" stroke-width="1.5" fill="#fff" stroke="#000"/>
  <path id="svg_106" d="m91.012805,339.22774l0,0l-3.17454,2.07035l-3.2899,2.07035l0.11537,0l0.52944,2.34639l0.41407,2.3464l0.11537,0l3.56595,0.41407l3.56596,0.41407l0,0l1.10418,-3.17454l0.98882,-3.17453l0.11537,0l-1.67893,-1.65628l-1.67893,-1.65628l-0.69223,-0.00001l0,0.00001z" fill-opacity="null" stroke-opacity="null" stroke-width="1.5" fill="#fff" stroke="#000"/>
  <path id="svg_107" d="m107.931193,339.040862l0,0l-3.17454,2.07035l-3.2899,2.07035l0.11537,0l0.52944,2.34639l0.41407,2.3464l0.11537,0l3.56595,0.41407l3.56596,0.41407l0,0l1.10418,-3.17454l0.98882,-3.17453l0.11537,0l-1.67893,-1.65628l-1.67893,-1.65628l-0.69223,-0.00001l0,0.00001z" fill-opacity="null" stroke-opacity="null" stroke-width="1.5" fill="#fff" stroke="#000"/>
 </g>
</svg>
